<?xml version="1.0" encoding="UTF-8" standalone="no"?>
<svg
   width="64.425957mm"
   height="14.725494mm"
   viewBox="0 0 64.425957 14.725495"
   version="1.1"
   id="svg8"
   xml:space="preserve"
   xmlns="http://www.w3.org/2000/svg"
   xmlns:svg="http://www.w3.org/2000/svg"
   xmlns:rdf="http://www.w3.org/1999/02/22-rdf-syntax-ns#"
   xmlns:cc="http://creativecommons.org/ns#"
   xmlns:dc="http://purl.org/dc/elements/1.1/"><defs
     id="defs2" /><metadata
     id="metadata5"><rdf:RDF><cc:Work
         rdf:about=""><dc:format>image/svg+xml</dc:format><dc:type
           rdf:resource="http://purl.org/dc/dcmitype/StillImage" /></cc:Work></rdf:RDF></metadata><g
     id="g2146"
     transform="matrix(0.36564267,0,0,0.36564267,-7.4900522,-28.748121)"
     style="fill:#ffffff;fill-opacity:1"><g
       aria-label="protobject"
       id="text1308-9"
       style="font-style:normal;font-weight:normal;font-size:33.0705px;line-height:1.25;font-family:sans-serif;fill:#ffffff;fill-opacity:1;stroke:none;stroke-width:0.826765"><path
         d="m 22.171218,112.1901 q -0.727551,0 -1.223608,-0.49606 -0.462987,-0.46299 -0.462987,-1.19054 V 95.423353 q 0.03307,-2.61257 1.223608,-4.696011 1.190538,-2.083442 3.240909,-3.27398 2.050371,-1.223608 4.62987,-1.223608 2.61257,0 4.662941,1.223608 2.050371,1.190538 3.240909,3.27398 1.223608,2.083441 1.223608,4.696011 0,2.612569 -1.124397,4.696007 -1.091326,2.05037 -3.009415,3.27398 -1.918089,1.19054 -4.332236,1.19054 -1.951159,0 -3.604684,-0.79369 -1.620455,-0.82676 -2.777922,-2.21572 v 8.92903 q 0,0.72755 -0.462987,1.19054 -0.462987,0.49606 -1.223609,0.49606 z m 7.407792,-10.58256 q 1.686596,0 3.009416,-0.7937 1.32282,-0.826758 2.083441,-2.215719 0.793692,-1.422032 0.793692,-3.174768 0,-1.785807 -0.793692,-3.174768 -0.760621,-1.422032 -2.083441,-2.215724 -1.32282,-0.826762 -3.009416,-0.826762 -1.653525,0 -3.009415,0.826762 -1.32282,0.793692 -2.083442,2.215724 -0.760621,1.388961 -0.760621,3.174768 0,1.752736 0.760621,3.174768 0.760622,1.388961 2.083442,2.215719 1.35589,0.7937 3.009415,0.7937 z"
         style="font-style:normal;font-variant:normal;font-weight:bold;font-stretch:normal;font-family:Comfortaa;-inkscape-font-specification:'Comfortaa Bold';fill:#ffffff;fill-opacity:1;stroke-width:0.826765"
         id="path865" /><path
         d="m 45.353609,93.141488 q 0,-1.98423 0.959044,-3.538543 0.992115,-1.587384 2.64564,-2.513358 1.653525,-0.925974 3.637755,-0.925974 1.98423,0 2.943274,0.66141 0.992115,0.628339 0.760622,1.521243 -0.09921,0.462987 -0.396846,0.727551 -0.264564,0.231493 -0.62834,0.297634 -0.363775,0.06614 -0.793692,-0.03307 -2.116511,-0.429917 -3.803107,-0.06614 -1.686595,0.363775 -2.67871,1.35589 -0.959045,0.992115 -0.959045,2.513358 z m 0.03307,11.310112 q -0.793692,0 -1.223608,-0.39685 -0.429917,-0.42991 -0.429917,-1.25668 V 88.015561 q 0,-0.793692 0.429917,-1.223609 0.429916,-0.429916 1.223608,-0.429916 0.826763,0 1.223609,0.429916 0.429916,0.396846 0.429916,1.223609 v 14.782509 q 0,0.7937 -0.429916,1.22361 -0.396846,0.42992 -1.223609,0.42992 z"
         style="font-style:normal;font-variant:normal;font-weight:bold;font-stretch:normal;font-family:Comfortaa;-inkscape-font-specification:'Comfortaa Bold';fill:#ffffff;fill-opacity:1;stroke-width:0.826765"
         id="path867" /><path
         d="m 66.68399,104.58388 q -2.678711,0 -4.729082,-1.15747 -2.050371,-1.19053 -3.240909,-3.24091 -1.157467,-2.083437 -1.157467,-4.762147 0,-2.711781 1.157467,-4.762152 1.190538,-2.083442 3.240909,-3.240909 2.050371,-1.190538 4.729082,-1.190538 2.645639,0 4.69601,1.190538 2.050371,1.157467 3.207839,3.240909 1.190538,2.050371 1.190538,4.762152 0,2.67871 -1.157468,4.762147 -1.157467,2.05038 -3.207838,3.24091 -2.050371,1.15747 -4.729081,1.15747 z m 0,-2.97634 q 1.719666,0 3.042485,-0.7937 1.32282,-0.79369 2.050371,-2.182649 0.760622,-1.388961 0.760622,-3.207838 0,-1.818878 -0.760622,-3.207839 -0.727551,-1.422031 -2.050371,-2.215723 -1.322819,-0.793692 -3.042485,-0.793692 -1.719666,0 -3.042486,0.793692 -1.32282,0.793692 -2.083442,2.215723 -0.760621,1.388961 -0.760621,3.207839 0,1.818877 0.760621,3.207838 0.760622,1.388959 2.083442,2.182649 1.32282,0.7937 3.042486,0.7937 z"
         style="font-style:normal;font-variant:normal;font-weight:bold;font-stretch:normal;font-family:Comfortaa;-inkscape-font-specification:'Comfortaa Bold';fill:#ffffff;fill-opacity:1;stroke-width:0.826765"
         id="path869" /><path
         d="m 87.386094,104.4516 q -1.653525,0 -2.976345,-0.82676 Q 83.08693,102.765 82.326308,101.3099 81.565687,99.8548 81.565687,98.035922 V 82.261294 q 0,-0.727551 0.462987,-1.190538 0.462987,-0.462987 1.190537,-0.462987 0.727551,0 1.190538,0.462987 0.462987,0.462987 0.462987,1.190538 v 15.774628 q 0,1.32282 0.727551,2.215728 0.727551,0.8929 1.785807,0.8929 h 1.124397 q 0.595269,0 0.992115,0.46299 0.429917,0.46298 0.429917,1.19053 0,0.72756 -0.562199,1.19054 -0.529128,0.46299 -1.388961,0.46299 z m -7.34165,-14.584091 q -0.694481,0 -1.124397,-0.396846 -0.429917,-0.396846 -0.429917,-0.992115 0,-0.66141 0.429917,-1.058256 0.429916,-0.396846 1.124397,-0.396846 h 7.639285 q 0.69448,0 1.124397,0.396846 0.429916,0.396846 0.429916,1.058256 0,0.595269 -0.429916,0.992115 -0.429917,0.396846 -1.124397,0.396846 z"
         style="font-style:normal;font-variant:normal;font-weight:bold;font-stretch:normal;font-family:Comfortaa;-inkscape-font-specification:'Comfortaa Bold';fill:#ffffff;fill-opacity:1;stroke-width:0.826765"
         id="path871" /><path
         d="m 102.26779,104.58388 q -2.678713,0 -4.729084,-1.15747 -2.050371,-1.19053 -3.240909,-3.24091 -1.157468,-2.083437 -1.157468,-4.762147 0,-2.711781 1.157468,-4.762152 1.190538,-2.083442 3.240909,-3.240909 2.050371,-1.190538 4.729084,-1.190538 2.64564,0 4.69601,1.190538 2.05037,1.157467 3.20784,3.240909 1.19053,2.050371 1.19053,4.762152 0,2.67871 -1.15746,4.762147 -1.15747,2.05038 -3.20784,3.24091 -2.05037,1.15747 -4.72908,1.15747 z m 0,-2.97634 q 1.71966,0 3.04248,-0.7937 1.32282,-0.79369 2.05037,-2.182649 0.76063,-1.388961 0.76063,-3.207838 0,-1.818878 -0.76063,-3.207839 -0.72755,-1.422031 -2.05037,-2.215723 -1.32282,-0.793692 -3.04248,-0.793692 -1.71967,0 -3.042489,0.793692 -1.32282,0.793692 -2.083441,2.215723 -0.760622,1.388961 -0.760622,3.207839 0,1.818877 0.760622,3.207838 0.760621,1.388959 2.083441,2.182649 1.322819,0.7937 3.042489,0.7937 z"
         style="font-style:normal;font-variant:normal;font-weight:bold;font-stretch:normal;font-family:Comfortaa;-inkscape-font-specification:'Comfortaa Bold';fill:#ffffff;fill-opacity:1;stroke-width:0.826765"
         id="path873" /><path
         d="m 125.48325,104.58388 q -2.5795,0 -4.62987,-1.19054 -2.05037,-1.22361 -3.24091,-3.30705 -1.19053,-2.083438 -1.2236,-4.696008 V 80.310135 q 0,-0.760622 0.46298,-1.223609 0.49606,-0.462987 1.22361,-0.462987 0.76062,0 1.22361,0.462987 0.46299,0.462987 0.46299,1.223609 v 8.929034 q 1.15746,-1.388961 2.77792,-2.182653 1.65352,-0.826762 3.60468,-0.826762 2.41415,0 4.33224,1.223608 1.91809,1.190538 3.00941,3.27398 1.1244,2.050371 1.1244,4.66294 0,2.61257 -1.22361,4.696008 -1.19053,2.08344 -3.24091,3.30705 -2.05037,1.19054 -4.66294,1.19054 z m 0,-2.97634 q 1.6866,0 3.00942,-0.7937 1.32282,-0.826758 2.08344,-2.24879 0.79369,-1.422031 0.79369,-3.174768 0,-1.785807 -0.79369,-3.174768 -0.76062,-1.388961 -2.08344,-2.182653 -1.32282,-0.826762 -3.00942,-0.826762 -1.65352,0 -3.00941,0.826762 -1.32282,0.793692 -2.08344,2.182653 -0.76062,1.388961 -0.76062,3.174768 0,1.752737 0.76062,3.174768 0.76062,1.422032 2.08344,2.24879 1.35589,0.7937 3.00941,0.7937 z"
         style="font-style:normal;font-variant:normal;font-weight:bold;font-stretch:normal;font-family:Comfortaa;-inkscape-font-specification:'Comfortaa Bold';fill:#ffffff;fill-opacity:1;stroke-width:0.826765"
         id="path875" /><path
         d="m 135.00753,112.1901 q -0.72755,0 -1.19054,-0.49606 -0.46298,-0.46299 -0.46298,-1.19054 0,-0.76062 0.46298,-1.22361 0.46299,-0.46298 1.19054,-0.46298 1.32282,0 2.31494,-0.59527 0.99211,-0.5622 1.55431,-1.55432 0.59527,-0.99211 0.59527,-2.28186 V 88.048631 q 0,-0.760621 0.46299,-1.223608 0.49605,-0.462987 1.2236,-0.462987 0.76063,0 1.22361,0.462987 0.46299,0.462987 0.46299,1.223608 v 16.336829 q 0,2.28186 -1.02519,4.0346 -0.99211,1.75274 -2.74485,2.74485 -1.75273,1.02519 -4.06767,1.02519 z m 6.15111,-28.771339 q -0.8929,0 -1.55431,-0.628339 -0.62834,-0.66141 -0.62834,-1.554313 0,-0.892904 0.62834,-1.521243 0.66141,-0.66141 1.55431,-0.66141 0.89291,0 1.52125,0.66141 0.66141,0.628339 0.66141,1.521243 0,0.892903 -0.66141,1.554313 -0.62834,0.628339 -1.52125,0.628339 z"
         style="font-style:normal;font-variant:normal;font-weight:bold;font-stretch:normal;font-family:Comfortaa;-inkscape-font-specification:'Comfortaa Bold';fill:#ffffff;fill-opacity:1;stroke-width:0.826765"
         id="path877" /><path
         d="m 156.30486,104.58388 q -2.74485,0 -4.89443,-1.15747 -2.11651,-1.19053 -3.34012,-3.24091 -1.19054,-2.083437 -1.19054,-4.762147 0,-2.711781 1.1244,-4.762152 1.15746,-2.083442 3.17476,-3.240909 2.01731,-1.190538 4.62987,-1.190538 2.5795,0 4.43145,1.157467 1.85195,1.124397 2.81099,3.141698 0.99212,1.98423 0.99212,4.596799 0,0.62834 -0.42992,1.058256 -0.42991,0.396846 -1.09132,0.396846 h -13.32741 v -2.64564 h 13.22819 l -1.35589,0.925974 q -0.0331,-1.653525 -0.66141,-2.943274 -0.62834,-1.32282 -1.7858,-2.083442 -1.15747,-0.760621 -2.811,-0.760621 -1.88501,0 -3.2409,0.826762 -1.32282,0.826763 -2.0173,2.281865 -0.69448,1.422031 -0.69448,3.240909 0,1.818877 0.82676,3.240909 0.82676,1.422028 2.28186,2.248798 1.4551,0.82676 3.34012,0.82676 1.02519,0 2.08344,-0.36378 1.09133,-0.39684 1.75274,-0.8929 0.49606,-0.36378 1.05826,-0.36378 0.59527,-0.0331 1.02518,0.33071 0.5622,0.49606 0.59527,1.09133 0.0331,0.59526 -0.52913,1.02518 -1.12439,0.8929 -2.81099,1.4551 -1.65352,0.5622 -3.17477,0.5622 z"
         style="font-style:normal;font-variant:normal;font-weight:bold;font-stretch:normal;font-family:Comfortaa;-inkscape-font-specification:'Comfortaa Bold';fill:#ffffff;fill-opacity:1;stroke-width:0.826765"
         id="path879" /><path
         d="m 175.88252,104.58388 q -2.64564,0 -4.72908,-1.19054 -2.05037,-1.22361 -3.24091,-3.27398 -1.15747,-2.083438 -1.15747,-4.696007 0,-2.678711 1.15747,-4.762152 1.15746,-2.083442 3.17477,-3.240909 2.0173,-1.190538 4.62987,-1.190538 1.95115,0 3.57161,0.760621 1.62045,0.727551 2.9102,2.215724 0.46299,0.529128 0.33071,1.091326 -0.13228,0.562199 -0.72755,0.992115 -0.46299,0.330705 -1.02519,0.231494 -0.5622,-0.132282 -1.02518,-0.595269 -1.62046,-1.719666 -4.0346,-1.719666 -1.6866,0 -2.97635,0.793692 -1.28975,0.760621 -2.0173,2.149582 -0.72755,1.388961 -0.72755,3.27398 0,1.785807 0.72755,3.174768 0.76062,1.388961 2.08344,2.215719 1.32282,0.7937 3.07556,0.7937 1.15747,0 2.0173,-0.26457 0.8929,-0.29763 1.62045,-0.8929 0.52913,-0.42992 1.09133,-0.462988 0.5622,-0.06614 0.99211,0.297638 0.5622,0.46298 0.62834,1.05825 0.0661,0.5622 -0.39684,1.02519 -2.38108,2.21572 -5.95269,2.21572 z"
         style="font-style:normal;font-variant:normal;font-weight:bold;font-stretch:normal;font-family:Comfortaa;-inkscape-font-specification:'Comfortaa Bold';fill:#ffffff;fill-opacity:1;stroke-width:0.826765"
         id="path881" /><path
         d="m 194.13743,104.4516 q -1.65353,0 -2.97635,-0.82676 -1.32282,-0.85984 -2.08344,-2.31494 -0.76062,-1.4551 -0.76062,-3.273978 V 82.261294 q 0,-0.727551 0.46299,-1.190538 0.46299,-0.462987 1.19054,-0.462987 0.72755,0 1.19053,0.462987 0.46299,0.462987 0.46299,1.190538 v 15.774628 q 0,1.32282 0.72755,2.215728 0.72755,0.8929 1.78581,0.8929 h 1.1244 q 0.59527,0 0.99211,0.46299 0.42992,0.46298 0.42992,1.19053 0,0.72756 -0.5622,1.19054 -0.52913,0.46299 -1.38896,0.46299 z m -7.34165,-14.584091 q -0.69448,0 -1.1244,-0.396846 -0.42991,-0.396846 -0.42991,-0.992115 0,-0.66141 0.42991,-1.058256 0.42992,-0.396846 1.1244,-0.396846 h 7.63928 q 0.69448,0 1.1244,0.396846 0.42992,0.396846 0.42992,1.058256 0,0.595269 -0.42992,0.992115 -0.42992,0.396846 -1.1244,0.396846 z"
         style="font-style:normal;font-variant:normal;font-weight:bold;font-stretch:normal;font-family:Comfortaa;-inkscape-font-specification:'Comfortaa Bold';fill:#ffffff;fill-opacity:1;stroke-width:0.826765"
         id="path883" /></g><g
       aria-label=")"
       transform="rotate(90)"
       id="text1308-7-5"
       style="font-style:normal;font-weight:normal;font-size:33.0705px;line-height:1.25;font-family:sans-serif;fill:#ffffff;fill-opacity:1;stroke:none;stroke-width:0.826765"><path
         d="m 113.5721,-67.527258 q -0.72755,0 -1.22361,-0.496057 -0.46298,-0.496058 -0.46298,-1.223609 0,-0.429916 0.19842,-0.826762 1.68659,-3.505473 2.5795,-7.110158 0.92597,-3.604684 0.92597,-7.110157 0,-7.110157 -3.4724,-14.154174 -0.19842,-0.330705 -0.23149,-0.859833 0,-0.727552 0.46298,-1.223612 0.49606,-0.52912 1.22361,-0.52912 1.09133,0 1.58739,1.157463 1.88501,3.836178 2.81099,7.738497 0.92597,3.902319 0.92597,7.837708 0,3.93539 -0.95904,7.837709 -0.92598,3.902319 -2.77792,7.837708 -0.29764,0.62834 -0.69449,0.859833 -0.36377,0.264564 -0.8929,0.264564 z"
         style="font-style:normal;font-variant:normal;font-weight:bold;font-stretch:normal;font-family:Comfortaa;-inkscape-font-specification:'Comfortaa Bold';fill:#ffffff;fill-opacity:1;stroke-width:0.826765"
         id="path886" /></g><g
       aria-label="."
       transform="scale(1.3583251,0.73620078)"
       id="text1308-8-5-9"
       style="font-style:normal;font-weight:normal;font-size:39.3193px;line-height:1.25;font-family:sans-serif;fill:#ffffff;fill-opacity:1;stroke:none;stroke-width:0.982993"><path
         d="m 49.24044,132.06139 q -1.10094,0 -1.926646,-0.78639 -0.786386,-0.8257 -0.786386,-1.92664 0,-1.14026 0.786386,-1.92665 0.825706,-0.8257 1.926646,-0.8257 1.14026,0 1.926646,0.8257 0.786386,0.78639 0.786386,1.92665 0,1.10094 -0.786386,1.92664 -0.786386,0.78639 -1.926646,0.78639 z"
         style="font-style:normal;font-variant:normal;font-weight:bold;font-stretch:normal;font-family:Comfortaa;-inkscape-font-specification:'Comfortaa Bold';fill:#ffffff;fill-opacity:1;stroke-width:0.982993"
         id="path889" /></g><g
       aria-label="."
       transform="scale(1.3583251,0.73620078)"
       id="text1308-8-5-7-1"
       style="font-style:normal;font-weight:normal;font-size:39.3193px;line-height:1.25;font-family:sans-serif;fill:#ffffff;fill-opacity:1;stroke:none;stroke-width:0.982993"><path
         d="m 75.459698,132.06139 q -1.100941,0 -1.926646,-0.78639 -0.786386,-0.8257 -0.786386,-1.92664 0,-1.14026 0.786386,-1.92665 0.825705,-0.8257 1.926646,-0.8257 1.140259,0 1.926645,0.8257 0.786386,0.78639 0.786386,1.92665 0,1.10094 -0.786386,1.92664 -0.786386,0.78639 -1.926645,0.78639 z"
         style="font-style:normal;font-variant:normal;font-weight:bold;font-stretch:normal;font-family:Comfortaa;-inkscape-font-specification:'Comfortaa Bold';fill:#ffffff;fill-opacity:1;stroke-width:0.982993"
         id="path892" /></g></g><path
     style="font-style:italic;font-size:4.89103px;line-height:1.25;font-family:Arial;-inkscape-font-specification:'Arial Italic';fill:#ffffff;fill-opacity:1;stroke-width:0.116313"
     d="m 45.820408,13.716703 0.695154,-3.330363 h 0.445252 l -0.615639,2.953255 h 1.728791 l -0.07952,0.377108 z m 4.327655,-0.820097 0.399823,0.04089 c -0.05758,0.198397 -0.190103,0.386952 -0.397559,0.565661 -0.205967,0.178709 -0.452069,0.268064 -0.738308,0.268064 -0.178712,0 -0.343035,-0.04089 -0.492968,-0.122672 -0.148418,-0.08331 -0.262005,-0.2037 -0.340762,-0.361207 -0.07723,-0.157509 -0.11586,-0.336974 -0.11586,-0.538401 0,-0.263521 0.06059,-0.518712 0.181743,-0.765574 0.122672,-0.248376 0.280935,-0.432385 0.47479,-0.552032 0.193856,-0.121158 0.403613,-0.181739 0.629268,-0.181739 0.287755,0 0.517203,0.08935 0.688343,0.268066 0.172649,0.178709 0.258973,0.422542 0.258973,0.731498 0,0.11813 -0.01056,0.239289 -0.03178,0.363476 h -1.776494 c -0.0063,0.04694 -0.0095,0.08934 -0.0095,0.127218 0,0.22566 0.05149,0.398311 0.154481,0.517957 0.104501,0.118129 0.231721,0.177194 0.381653,0.177194 0.140848,0 0.279422,-0.0462 0.415727,-0.138575 0.136306,-0.09238 0.242322,-0.225659 0.318047,-0.399826 z m -1.194939,-0.597464 h 1.353958 c 0.0013,-0.04241 0.002,-0.0727 0.002,-0.09087 0,-0.20597 -0.05149,-0.363477 -0.15448,-0.47252 -0.102979,-0.110553 -0.235503,-0.165836 -0.397548,-0.165836 -0.175687,0 -0.336222,0.06058 -0.48161,0.181739 -0.143878,0.121159 -0.251408,0.303655 -0.322592,0.547489 z m 3.637051,1.117691 c -0.142363,0.122674 -0.279425,0.212787 -0.41119,0.270338 -0.131759,0.05604 -0.272604,0.08405 -0.422538,0.08405 -0.222632,0 -0.4021,-0.06512 -0.538399,-0.195369 -0.136304,-0.13176 -0.204458,-0.299869 -0.204458,-0.504325 0,-0.134789 0.03029,-0.253676 0.09084,-0.356661 0.06208,-0.104511 0.143863,-0.187798 0.245342,-0.249892 0.101479,-0.06361 0.225661,-0.109044 0.37257,-0.136303 0.09238,-0.01818 0.267306,-0.03257 0.524765,-0.04317 0.258978,-0.01056 0.444503,-0.03786 0.556576,-0.08178 0.03183,-0.112074 0.04775,-0.205214 0.04775,-0.279423 0,-0.09542 -0.03484,-0.170383 -0.104511,-0.224902 -0.0954,-0.07573 -0.234739,-0.113589 -0.417991,-0.113589 -0.172655,0 -0.314262,0.03863 -0.424822,0.11586 -0.109042,0.07573 -0.188552,0.18401 -0.238529,0.324857 l -0.415728,-0.03634 c 0.08482,-0.239289 0.218844,-0.422542 0.402096,-0.549761 0.184768,-0.127216 0.417243,-0.190825 0.697424,-0.190825 0.298352,0 0.534612,0.07117 0.708784,0.213543 0.133275,0.106014 0.199911,0.243833 0.199911,0.413455 0,0.128733 -0.01893,0.27791 -0.05678,0.447532 l -0.134029,0.599738 c -0.04241,0.190826 -0.06364,0.346061 -0.06364,0.465704 0,0.07574 0.01664,0.18477 0.04994,0.32713 h -0.415727 c -0.02271,-0.07877 -0.03862,-0.17871 -0.04775,-0.299869 z m 0.152206,-0.922323 c -0.05753,0.02271 -0.119606,0.04013 -0.18628,0.05225 -0.06513,0.01212 -0.174933,0.02499 -0.329403,0.03862 -0.239292,0.0212 -0.408157,0.04847 -0.506599,0.08178 -0.09845,0.03181 -0.172651,0.0833 -0.222635,0.154476 -0.04997,0.07118 -0.07495,0.149937 -0.07495,0.236261 0,0.1151 0.03937,0.209757 0.118132,0.283967 0.08028,0.0742 0.193859,0.111313 0.340761,0.111313 0.136306,0 0.267309,-0.0356 0.393013,-0.106774 0.125701,-0.0727 0.224899,-0.17341 0.297592,-0.302141 0.0727,-0.128732 0.129492,-0.311986 0.170386,-0.54976 z m 0.808738,1.222193 0.504325,-2.412582 h 0.363476 l -0.102229,0.492967 c 0.124187,-0.186283 0.245345,-0.324101 0.363475,-0.413455 0.119646,-0.08935 0.241562,-0.134033 0.365749,-0.134033 0.08178,0 0.182494,0.02953 0.30214,0.0886 l -0.168111,0.381651 c -0.07117,-0.05149 -0.149171,-0.07723 -0.233983,-0.07723 -0.143878,0 -0.291543,0.08027 -0.44299,0.240802 -0.151449,0.160536 -0.270339,0.449046 -0.356665,0.86553 l -0.204449,0.967759 z m 1.549322,0 0.504326,-2.412582 h 0.372558 l -0.08857,0.420271 c 0.162053,-0.165079 0.313502,-0.28548 0.454348,-0.361206 0.140847,-0.07573 0.284722,-0.113586 0.43163,-0.113586 0.195371,0 0.348333,0.053 0.458885,0.159021 0.112073,0.106014 0.168113,0.24762 0.168113,0.424814 0,0.08935 -0.01968,0.230203 -0.05909,0.422543 l -0.306686,1.460725 h -0.411181 l 0.320309,-1.528878 c 0.03183,-0.148419 0.04776,-0.25822 0.04776,-0.3294 0,-0.08028 -0.02803,-0.145391 -0.08409,-0.19537 -0.05455,-0.04998 -0.134052,-0.07497 -0.238532,-0.07497 -0.210514,0 -0.398309,0.07573 -0.563387,0.227174 -0.163566,0.151449 -0.283968,0.411183 -0.361201,0.779203 l -0.233995,1.122237 z m 3.171336,-2.864656 0.09769,-0.465707 h 0.408917 l -0.09769,0.465707 z m -0.599734,2.864656 0.504325,-2.412582 h 0.41118 l -0.504325,2.412582 z m 1.049543,0 0.504325,-2.412582 h 0.372562 l -0.08857,0.420271 c 0.162051,-0.165079 0.313502,-0.28548 0.454347,-0.361206 0.140846,-0.07573 0.284724,-0.113586 0.431633,-0.113586 0.195362,0 0.348324,0.053 0.458884,0.159021 0.112073,0.106014 0.168111,0.24762 0.168111,0.424814 0,0.08935 -0.01968,0.230203 -0.05909,0.422543 l -0.306687,1.460725 h -0.41118 l 0.320309,-1.528878 c 0.03183,-0.148419 0.04775,-0.25822 0.04775,-0.3294 0,-0.08028 -0.02803,-0.145391 -0.08409,-0.19537 -0.05455,-0.04998 -0.134052,-0.07497 -0.238531,-0.07497 -0.210515,0 -0.39831,0.07573 -0.563388,0.227174 -0.163568,0.151449 -0.283972,0.411183 -0.361212,0.779203 l -0.233983,1.122237 z m 2.564782,0.218086 0.415727,0.03863 c -0.0032,0.09389 0.0082,0.164321 0.03405,0.211271 0.02575,0.04695 0.06663,0.08331 0.122679,0.109043 0.0742,0.03333 0.170379,0.04998 0.288511,0.04998 0.248372,0 0.427081,-0.06437 0.536124,-0.193097 0.07118,-0.08634 0.137064,-0.274122 0.197646,-0.56339 l 0.04091,-0.195369 c -0.213539,0.216572 -0.440713,0.324857 -0.681521,0.324857 -0.243833,0 -0.448286,-0.08935 -0.613364,-0.268064 -0.163561,-0.180225 -0.245342,-0.434659 -0.245342,-0.763302 0,-0.271093 0.06436,-0.520227 0.193091,-0.747402 0.130249,-0.227173 0.284725,-0.398308 0.46343,-0.513411 0.178712,-0.116615 0.362725,-0.174923 0.552039,-0.174923 0.316525,0 0.560359,0.149934 0.7315,0.449805 l 0.08182,-0.395283 h 0.377107 l -0.486146,2.328526 c -0.05301,0.25595 -0.122682,0.455104 -0.209006,0.597467 -0.08633,0.143876 -0.206721,0.255192 -0.361202,0.333944 -0.152964,0.07874 -0.330159,0.11813 -0.531586,0.11813 -0.193856,0 -0.361206,-0.02499 -0.502053,-0.07497 -0.13933,-0.04998 -0.243828,-0.123431 -0.313496,-0.220359 -0.06815,-0.09542 -0.102229,-0.205213 -0.102229,-0.329402 0,-0.03786 0.0037,-0.07877 0.01135,-0.122671 z m 0.51341,-1.285803 c 0,0.16508 0.01592,0.289269 0.04776,0.372566 0.04539,0.116616 0.109769,0.205971 0.193092,0.268065 0.0848,0.06057 0.178709,0.09087 0.281697,0.09087 0.13479,0 0.268822,-0.04695 0.402095,-0.140848 0.133275,-0.09542 0.240804,-0.242319 0.322584,-0.440716 0.08331,-0.198397 0.124952,-0.38771 0.124952,-0.567933 0,-0.198399 -0.05528,-0.355905 -0.165838,-0.47252 -0.109044,-0.118132 -0.24459,-0.177198 -0.406641,-0.177198 -0.09996,0 -0.196885,0.02726 -0.290784,0.08178 -0.09389,0.05301 -0.181739,0.134788 -0.263519,0.245347 -0.08028,0.109044 -0.141611,0.240047 -0.184016,0.39301 -0.0409,0.152963 -0.06136,0.268822 -0.06136,0.347576 z"
     id="text1"
     aria-label="Learning Center" /></svg>
