<?xml version="1.0" encoding="UTF-8" standalone="no"?>
<svg
   width="45.656166mm"
   height="11.405068mm"
   viewBox="0 0 45.656167 11.405069"
   version="1.1"
   id="svg8"
   xml:space="preserve"
   xmlns="http://www.w3.org/2000/svg"
   xmlns:svg="http://www.w3.org/2000/svg"
   xmlns:rdf="http://www.w3.org/1999/02/22-rdf-syntax-ns#"
   xmlns:cc="http://creativecommons.org/ns#"
   xmlns:dc="http://purl.org/dc/elements/1.1/"><defs
     id="defs2" /><metadata
     id="metadata5"><rdf:RDF><cc:Work
         rdf:about=""><dc:format>image/svg+xml</dc:format><dc:type
           rdf:resource="http://purl.org/dc/dcmitype/StillImage" /></cc:Work></rdf:RDF></metadata><path
     style="font-size:9.75065px;line-height:1.25;font-family:Arial;-inkscape-font-specification:'Arial, Normal';fill:#ed5353;fill-opacity:1;stroke-width:0.285539"
     d="M 0.12096194,9.8214254 V 1.6456921 H 1.2028816 v 8.1757333 z m 2.86095346,0 V 3.8987587 H 3.8853766 V 4.7408719 C 4.3203688,4.0902335 4.9486949,3.7649143 5.7703643,3.7649143 c 0.3569264,0 0.684102,0.065064 0.9815271,0.1951913 C 7.053051,4.086515 7.2779893,4.2538222 7.4266972,4.4620268 7.5754233,4.6702307 7.6795231,4.917473 7.7390064,5.2037527 7.7761724,5.38965 7.7948004,5.7149691 7.7948004,6.1797111 V 9.8214254 H 6.7909563 V 6.2187488 c 0,-0.4089718 -0.039083,-0.7138425 -0.1171311,-0.9146106 C 6.5957503,5.0996519 6.4563109,4.9379214 6.255553,4.8189478 6.0585025,4.6962558 5.8261309,4.6349097 5.5584475,4.6349097 c -0.427559,0 -0.7974889,0.1357047 -1.1097982,0.4071145 C 4.1400563,5.3134323 3.98576,5.8283661 3.98576,6.5868238 v 3.2346016 z m 6.5918907,0 V 4.6795258 H 8.6870841 V 3.8987587 h 0.886722 V 3.2685705 c 0,-0.3978193 0.035338,-0.693395 0.1060084,-0.8867273 0.096667,-0.2602549 0.265839,-0.4703187 0.5075055,-0.6301901 0.245384,-0.1635886 0.587435,-0.245383 1.026145,-0.245383 0.282559,0 0.594867,0.033458 0.936919,0.1003863 l -0.150581,0.8755733 c -0.208207,-0.037175 -0.405259,-0.055767 -0.59115,-0.055767 -0.304878,0 -0.520511,0.065064 -0.64691,0.1951912 -0.126417,0.1301272 -0.189626,0.3736512 -0.189626,0.730573 V 3.898763 h 1.154424 V 4.6795295 H 10.572117 V 9.8214293 Z M 12.133609,6.8600922 c 0,-1.0967895 0.304867,-1.9091575 0.91461,-2.4371044 0.509361,-0.4387155 1.130254,-0.6580735 1.862679,-0.6580735 0.814237,0 1.479748,0.2676916 1.996531,0.8030737 0.516793,0.5316639 0.775189,1.2678141 0.775189,2.2084505 0,0.7621771 -0.115248,1.3626237 -0.345756,1.8013389 -0.226803,0.4349986 -0.559559,0.7733303 -0.998267,1.014996 -0.435,0.2416645 -0.910902,0.3624966 -1.427686,0.3624966 -0.829102,0 -1.500193,-0.2658318 -2.01327,-0.7974954 C 12.388288,8.62611 12.133609,7.8602154 12.133609,6.8600922 Z m 1.031724,0 c 0,0.7584577 0.165445,1.3273018 0.496348,1.7065318 0.330892,0.3755109 0.7473,0.5632664 1.249217,0.5632664 0.498211,0 0.912758,-0.1896145 1.24365,-0.5688439 0.330902,-0.3792293 0.496348,-0.9573673 0.496348,-1.7344152 0,-0.7324326 -0.16731,-1.286405 -0.501928,-1.6619159 -0.330892,-0.3792284 -0.743584,-0.568843 -1.23807,-0.568843 -0.501917,0 -0.918325,0.1877554 -1.249217,0.5632663 -0.330903,0.375511 -0.496348,0.9424957 -0.496348,1.7009535 z"
     id="text1-1"
     aria-label="InfoVis" /><path
     style="font-size:2.75625px;line-height:1.25;font-family:Arial;-inkscape-font-specification:'Arial, Normal';fill:#666666;stroke-width:0.0783983"
     d="M 34.960779,8.8586515 V 6.6139018 h 0.297051 v 2.2447497 z m 0.871248,0 V 6.6139018 h 0.297051 v 2.2447497 z m 2.422376,-0.7870399 0.297051,0.07502 q -0.0934,0.3659582 -0.336857,0.5588909 -0.241936,0.1913997 -0.592584,0.1913997 -0.362899,0 -0.59105,-0.1469952 -0.226618,-0.1485277 -0.346047,-0.4287387 -0.117903,-0.2802109 -0.117903,-0.6017637 0,-0.3506468 0.13322,-0.6109517 0.134738,-0.2618358 0.381268,-0.3965824 0.248046,-0.1362773 0.545106,-0.1362773 0.336866,0 0.566553,0.1714949 0.229677,0.1714948 0.320013,0.4823306 l -0.292456,0.068899 q -0.07805,-0.2449941 -0.226618,-0.356772 -0.148538,-0.1117715 -0.373612,-0.1117715 -0.258779,0 -0.433332,0.1240275 -0.173036,0.1240267 -0.243469,0.3338026 -0.07043,0.2082451 -0.07043,0.430269 0,0.2863361 0.08266,0.5007047 0.08417,0.2128386 0.260303,0.318492 0.176096,0.1056508 0.381276,0.1056508 0.249581,0 0.422618,-0.1439337 Q 38.193139,8.3548744 38.254384,8.0716 Z m 1.99976,0.5221408 v 0.2648991 h -1.483746 q -0.0036,-0.09953 0.0322,-0.1914006 0.05667,-0.1515898 0.180681,-0.2985859 0.125568,-0.1469954 0.361365,-0.3399271 0.365967,-0.3001169 0.494585,-0.4746743 0.128626,-0.1760894 0.128626,-0.3322726 0,-0.1638387 -0.117904,-0.2756174 -0.116385,-0.1133078 -0.304714,-0.1133078 -0.199058,0 -0.318488,0.1194339 -0.119437,0.1194341 -0.120963,0.330741 l -0.283281,-0.029092 q 0.02909,-0.3169602 0.218955,-0.4823306 0.189869,-0.1669013 0.509894,-0.1669013 0.323091,0 0.511426,0.1791519 0.188337,0.1791502 0.188337,0.4440496 0,0.1347455 -0.05517,0.2648993 -0.05516,0.1301521 -0.183742,0.2740846 -0.127092,0.1439345 -0.424143,0.3950515 -0.248046,0.2082441 -0.318488,0.2832745 -0.07043,0.073502 -0.11637,0.1485271 z m 0.295516,-0.8421645 q 0,-0.3981132 0.08115,-0.6400439 0.08275,-0.2434616 0.24347,-0.3751454 0.162304,-0.1316847 0.4073,-0.1316847 0.180673,0 0.316953,0.073502 0.136281,0.071959 0.225092,0.2097759 0.08885,0.1362774 0.139341,0.3338026 0.05056,0.1959953 0.05056,0.5297987 0,0.3950515 -0.08115,0.6385131 -0.08116,0.2419298 -0.243469,0.3751454 -0.160771,0.1316835 -0.4073,0.1316835 -0.32461,0 -0.509894,-0.2327425 -0.222015,-0.2802117 -0.222015,-0.9126012 z m 0.283276,0 q 0,0.5527665 0.128626,0.7365111 0.130144,0.1822137 0.320024,0.1822137 0.189862,0 0.318488,-0.1837454 0.130143,-0.1837446 0.130143,-0.7349794 0,-0.5542956 -0.130143,-0.7365103 -0.128626,-0.1822136 -0.321567,-0.1822136 -0.189862,0 -0.30317,0.1607777 -0.142401,0.2051807 -0.142401,0.7579462 z m 2.909298,0.8421645 v 0.2648991 h -1.483746 q -0.0036,-0.09953 0.03219,-0.1914006 0.05667,-0.1515898 0.180682,-0.2985859 0.125567,-0.1469954 0.361372,-0.3399271 0.365958,-0.3001169 0.494577,-0.4746743 0.128626,-0.1760894 0.128626,-0.3322726 0,-0.1638387 -0.117903,-0.2756174 -0.116387,-0.1133078 -0.304714,-0.1133078 -0.19906,0 -0.318489,0.1194339 -0.119433,0.1194341 -0.120958,0.330741 l -0.283276,-0.029092 q 0.02908,-0.3169602 0.218953,-0.4823306 0.189871,-0.1669013 0.509894,-0.1669013 0.323091,0 0.511429,0.1791519 0.188335,0.1791502 0.188335,0.4440496 0,0.1347455 -0.05517,0.2648993 -0.05517,0.1301521 -0.183742,0.2740846 -0.127091,0.1439345 -0.424142,0.3950515 -0.248055,0.2082441 -0.318489,0.2832745 -0.07043,0.073502 -0.116368,0.1485271 z m 1.725663,-1.4301476 -0.274088,0.021438 Q 45.157106,7.0227349 45.089727,6.9492364 44.978005,6.8313341 44.814113,6.8313341 q -0.131686,0 -0.231211,0.073502 -0.130162,0.094934 -0.205189,0.2771483 -0.07495,0.1822137 -0.07806,0.5190797 0.09956,-0.1515906 0.243462,-0.2250883 0.143926,-0.073502 0.301644,-0.073502 0.275614,0 0.468553,0.2036506 0.194466,0.2021196 0.194466,0.5236725 0,0.2113069 -0.09182,0.3935206 -0.09034,0.1806827 -0.249589,0.2771491 -0.159244,0.09647 -0.361364,0.09647 -0.344521,0 -0.561958,-0.2526485 -0.217419,-0.2541805 -0.217419,-0.8360392 0,-0.6507637 0.240391,-0.9462861 0.209775,-0.2572431 0.565019,-0.2572431 0.264898,0 0.43333,0.1485279 0.169969,0.1485271 0.203646,0.4103629 z m -1.125433,0.967723 q 0,0.1424027 0.0597,0.2725556 0.06119,0.130152 0.169967,0.1990561 0.108652,0.067373 0.228143,0.067373 0.174562,0 0.300128,-0.1408708 0.125549,-0.1408718 0.125549,-0.3828017 0,-0.2327445 -0.124023,-0.3659584 -0.124032,-0.1347464 -0.312368,-0.1347464 -0.186811,0 -0.316954,0.1347464 -0.13016,0.1332139 -0.13016,0.350646 z"
     id="text1-9-2"
     aria-label="IIC2026" /><path
     d="m 35.007932,2.6224244 h 1.741576 q 0.568968,0 0.851131,0.2706035 0.284479,0.2706045 0.284479,0.7701799 0,0.5134533 -0.309919,0.8025603 -0.307613,0.289107 -0.941336,0.289107 H 36.06027 v 1.2581936 h -1.052338 z m 1.052338,1.4455339 h 0.256731 q 0.302988,0 0.425566,-0.1040798 0.122586,-0.1063931 0.122586,-0.2706044 0,-0.1595875 -0.10636,-0.2706036 -0.106361,-0.1110187 -0.400117,-0.1110187 h -0.29837 z m 4.579457,-1.4455339 h 1.045406 v 2.0214337 q 0,0.3006715 -0.09485,0.5689626 -0.0925,0.265978 -0.293729,0.4671961 -0.198908,0.1989059 -0.418615,0.2798549 -0.305304,0.113331 -0.733178,0.113331 -0.24748,0 -0.54121,-0.03469 -0.291427,-0.03469 -0.488019,-0.136458 -0.196591,-0.10408 -0.36081,-0.2937331 Q 38.592829,5.418668 38.532698,5.217449 38.4355,4.8936502 38.4355,4.6438616 V 2.6224279 h 1.045406 V 4.692432 q 0,0.2775425 0.152652,0.4348167 0.15496,0.1549601 0.427874,0.1549601 0.270605,0 0.423256,-0.1526477 0.154961,-0.154961 0.154961,-0.4371291 z m 3.996615,2.0052444 0.918194,0.2775416 q -0.0925,0.386247 -0.291412,0.6452869 -0.198909,0.2590394 -0.494955,0.3908724 -0.293738,0.131833 -0.749359,0.131833 -0.552777,0 -0.904329,-0.159588 -0.349243,-0.1618993 -0.603658,-0.5666488 -0.254414,-0.4047486 -0.254414,-1.0361578 0,-0.8418795 0.44639,-1.2928863 0.448689,-0.4533183 1.267437,-0.4533183 0.640665,0 1.0061,0.259039 0.367743,0.259039 0.545827,0.7956223 L 44.597018,3.8251085 Q 44.548418,3.6701477 44.495239,3.5984489 44.407309,3.4781798 44.280148,3.413421 44.152945,3.348666 43.995659,3.348666 q -0.356175,0 -0.545826,0.2867937 -0.143394,0.2127827 -0.143394,0.6684143 0,0.5643371 0.171142,0.7748064 0.171152,0.2081571 0.481081,0.2081571 0.300661,0 0.453322,-0.1688387 0.154951,-0.1688387 0.224349,-0.4903242 z"
     id="text2-3"
     style="font-weight:900;font-size:4.23975px;line-height:1.25;font-family:Arial;-inkscape-font-specification:'Arial, Heavy';stroke-width:0.118418"
     aria-label="PUC" /><path
     d="m 20.632646,9.8191805 -3.220779,-8.312794 h 1.190788 l 2.160414,6.038968 c 0.173892,0.4838734 0.319428,0.9375039 0.436621,1.3608935 0.128526,-0.4536316 0.277843,-0.907262 0.447956,-1.3608935 l 2.245471,-6.038968 h 1.12274 l -3.254798,8.312794 z m 5.03532,-7.1390219 V 1.5063865 h 1.020663 v 1.1737721 z m 0,7.1390219 V 3.7972244 h 1.020663 v 6.0219561 z m 2.166077,-1.7975138 1.009335,-0.1587708 c 0.05673,0.4044876 0.213576,0.7144695 0.470641,0.9299445 0.260835,0.2154748 0.623734,0.3232123 1.088711,0.3232123 0.468746,0 0.816532,-0.094507 1.043346,-0.2835196 0.226825,-0.1927933 0.340238,-0.4177192 0.340238,-0.6747774 0,-0.2305951 -0.100189,-0.4120471 -0.300537,-0.5443566 -0.139873,-0.09073 -0.487658,-0.206025 -1.043345,-0.345894 C 29.69394,7.0784925 29.174144,6.915941 28.88307,6.779851 28.595765,6.6399821 28.376509,6.4490781 28.225298,6.2071419 28.077867,5.9614248 28.004156,5.691136 28.004156,5.3962752 c 0,-0.2683984 0.06044,-0.5160049 0.181459,-0.74282 0.12474,-0.2305962 0.29296,-0.4215002 0.504659,-0.5727112 0.158769,-0.1171874 0.374237,-0.215474 0.646428,-0.2948599 0.275958,-0.083164 0.570821,-0.1247479 0.884587,-0.1247479 0.472525,0 0.886463,0.068046 1.241807,0.2041338 0.359121,0.1360891 0.623745,0.3213219 0.793858,0.5556987 0.170104,0.230596 0.287295,0.5405768 0.351564,0.9299444 L 31.610536,5.4870013 C 31.565137,5.1770196 31.432846,4.9350832 31.213597,4.7611925 30.998119,4.5873 30.691921,4.5003536 30.295001,4.5003536 c -0.468756,0 -0.803311,0.0775 -1.003663,0.2324862 -0.200355,0.1549909 -0.300528,0.3364432 -0.300528,0.5443577 0,0.1323083 0.0416,0.2513871 0.124749,0.3572351 0.08319,0.1096278 0.213576,0.200354 0.391247,0.2721784 0.102059,0.037798 0.402601,0.1247459 0.901597,0.2608369 0.722022,0.1927946 1.224797,0.3515651 1.508323,0.4763131 0.287296,0.1209691 0.512227,0.2986415 0.674782,0.5330173 0.162538,0.2343765 0.243816,0.5254565 0.243816,0.87324 0,0.3402247 -0.100178,0.6615468 -0.300518,0.9639671 C 32.338222,9.312626 32.052812,9.5451122 31.678574,9.7114442 31.304318,9.8739945 30.880927,9.95527 30.408403,9.95527 29.625892,9.95527 29.028608,9.7927184 28.616565,9.4676168 28.208289,9.1425139 27.947446,8.6605309 27.834043,8.0216667 Z"
     style="font-size:9.75065px;line-height:1.25;font-family:Arial;-inkscape-font-specification:'Arial, Normal';fill:#7a57ed;fill-opacity:1;stroke-width:0.290326"
     id="path1" /></svg>
